<svg xmlns="http://www.w3.org/2000/svg" xmlns:xlink="http://www.w3.org/1999/xlink" width="40" height="40" version="1.1"><rect id="backgroundrect" width="100%" height="100%" x="0" y="0" fill="none" stroke="none" class="" style=""/>
    <!-- Generator: Sketch 50 (54983) - http://www.bohemiancoding.com/sketch -->
    <title>Shape</title>
    <desc>Created with Sketch.</desc>
    <defs/>
    
<g class="currentLayer" style=""><title>Layer 1</title><g id="As-a-Brand:-Rewards" stroke="none" stroke-width="1" fill="none" fill-rule="evenodd" class="selected">
        <g id="Rewards---Create-Reward---3" fill="#0E4FE1" fill-rule="nonzero">
            <g id="Group-14">
                <g id="Cash">
                    <path d="M37.7997703,2.700224199999999 C37.6715249,2.5720506000000007 37.4976142,2.5 37.3162522,2.5 L20.4998291,2.500888700000001 C20.122338999999997,2.500888700000001 19.816286400000003,2.8070014000000008 19.816286400000003,3.1844810999999993 L19.816286400000003,5.1393503 L13.336405,6.8756067000000005 C12.971698499999999,6.973360400000001 12.755267199999999,7.3481741 12.8530236,7.7128023 L16.2113999,20.2459224 L13.306121099999999,23.1511218 C12.936355800000001,22.6112205 12.315500199999999,22.2561626 11.6132265,22.2561626 L5.050764999999998,22.2561626 C3.919935500000001,22.2561626 3,23.1761413 3,24.3068715 L3,35.4491544 C3,36.579953 3.919935500000001,37.4999316 5.050764999999998,37.4999316 L11.6132949,37.4999316 C12.573973599999999,37.4999316 13.382138600000001,36.8357533 13.6036286,35.9427081 L14.416442199999999,36.6515251 C15.0439288,37.1986725 15.847855500000001,37.5 16.6804255,37.5 L37.3163889,37.5 C37.6938789,37.5 38,37.1938873 38,36.8164076 L38,3.1835924 C37.9998633,3.0023037000000006 37.9279474,2.8283977999999994 37.7997703,2.700224199999999 zM12.296769300000001,35.4492228 C12.296769300000001,35.8260873 11.9901013,36.1328152 11.6131581,36.1328152 L5.050696599999998,36.1328152 C4.673753399999999,36.1328152 4.367085500000002,35.8261556 4.367085500000002,35.4492228 L4.367085500000002,24.306939800000002 C4.367085500000002,23.930007000000003 4.673753399999999,23.6233474 5.050696599999998,23.6233474 L7.648350400000002,23.6233474 L7.648350400000002,31.497990199999997 C7.648350400000002,31.87547 7.9544715,32.1815827 8.3319616,32.1815827 C8.709451600000001,32.1815827 9.0155727,31.87547 9.0155727,31.497990199999997 L9.0155727,23.6233474 L11.6132265,23.6233474 C11.9901697,23.6233474 12.2968376,23.930007000000003 12.2968376,24.306939800000002 L12.2968376,35.4492228 L12.296769300000001,35.4492228 zM14.350542099999998,8.0192568 L19.816286400000003,6.5547284 L19.816286400000003,9.0877801 L19.358130199999998,9.2105533 C19.182920699999997,9.2575161 19.033688400000003,9.372017800000002 18.9430415,9.529039000000001 C18.852394699999998,9.6860602 18.827784700000002,9.8726126 18.8747488,10.047748899999998 C19.137460500000003,11.028088799999999 18.5535883,12.039327100000001 17.573221599999997,12.3020316 C17.397875300000003,12.349062799999999 17.248369599999997,12.4637696 17.157791099999997,12.6211326 C17.067212599999998,12.7784272 17.042807699999997,12.9653214 17.090182,13.140594499999999 L19.754829700000002,23.0074306 L18.3828222,23.0074306 L17.6757633,20.2413423 C17.6532724,20.1532956 17.6138964,20.0721532 17.561190000000003,20.0016064 L14.350542099999998,8.0192568 zM19.816286400000003,12.2226666 L19.816286400000003,17.990887700000002 L18.569448100000002,13.3742463 C19.090291399999998,13.105321100000001 19.5165229,12.702958599999999 19.816286400000003,12.2226666 zM29.637317000000003,36.1327468 L16.6802888,36.1327468 C16.1781764,36.1327468 15.693290999999999,35.9510479 15.3148439,35.6210779 L13.663991500000002,34.1813639 L13.663991500000002,24.726802300000003 L16.6485008,21.7423745 L17.189784099999997,23.860143800000003 C17.2671689,24.162770199999997 17.5397246,24.374410400000002 17.8520666,24.374410400000002 L31.292134400000002,24.375230700000003 C31.8198821,24.375230700000003 32.2491899,24.804526699999997 32.2491899,25.3322601 C32.2491899,25.8599934 31.8198821,26.289289500000002 31.292134400000002,26.289289500000002 L24.405436100000003,26.289289500000002 C24.027946,26.289289500000002 23.721825000000003,26.595402200000002 23.721825000000003,26.972881899999997 C23.721825000000003,27.3503616 24.027946,27.6564743 24.405436100000003,27.6564743 L33.4318371,27.6564743 C33.9595849,27.6564743 34.3888927,28.0857703 34.3888927,28.613503700000003 C34.3888927,29.141236999999997 33.9595849,29.5705331 33.4318371,29.5705331 L24.405436100000003,29.5705331 C24.027946,29.5705331 23.721825000000003,29.876645699999997 23.721825000000003,30.2541255 C23.721825000000003,30.631605200000003 24.027946,30.937717900000003 24.405436100000003,30.937717900000003 L31.969114500000003,30.937717900000003 C32.4968622,30.937717900000003 32.92617,31.367013900000003 32.92617,31.8947473 C32.92617,32.4224806 32.4968622,32.8517767 31.969114500000003,32.8517767 L24.405436100000003,32.8517767 C24.027946,32.8517767 23.721825000000003,33.1578893 23.721825000000003,33.5353691 C23.721825000000003,33.9128488 24.027946,34.2189615 24.405436100000003,34.2189615 L29.637317000000003,34.2189615 C30.165064700000002,34.2189615 30.5943725,34.6482575 30.5943725,35.1759909 C30.594304200000003,35.7034508 30.1649964,36.1327468 29.637317000000003,36.1327468 zM36.6327778,36.1327468 L31.754528899999997,36.1327468 C31.887081100000003,35.8406478 31.961526399999997,35.51683 31.961526399999997,35.1757174 C31.961526399999997,34.8346048 31.887081100000003,34.5107871 31.754528899999997,34.218688 L31.969114500000003,34.218688 C33.2506802,34.218688 34.2933239,33.1760729 34.2933239,31.894542200000004 C34.2933239,31.520753900000003 34.2041126,31.1675417 34.0466086,30.854319599999997 C35.0307352,30.5840272 35.7559782,29.682026999999998 35.7559782,28.613366999999997 C35.7559782,28.094930499999997 35.5852121,27.6156638 35.2972068,27.228750499999997 L35.2972068,12.135440200000001 L33.9299846,12.135440200000001 L33.9299846,26.3436351 C33.7693359,26.308430100000002 33.6027399,26.289289500000002 33.4317004,26.289289500000002 C33.5418302,25.9971904 33.6162754,25.6733727 33.6162754,25.3322601 C33.6162754,24.050660999999998 32.5736318,23.0081142 31.292066,23.0081142 L30.1931612,23.0081142 C31.360017,22.5077246 32.1795299,21.3479417 32.1795299,19.999965800000002 C32.1795299,18.1960338 30.7119536,16.7284292 28.907972299999997,16.7284292 C27.104059300000003,16.7284292 25.636414600000002,18.1960338 25.636414600000002,19.999965800000002 C25.636414600000002,21.3479417 26.455996,22.5077246 27.622783400000003,23.0081142 L23.885959999999997,23.0081142 L23.885959999999997,10.0101513 C25.1071629,9.744028799999999 26.070781099999998,8.780505300000002 26.336842500000003,7.559267500000001 L31.4790336,7.559267500000001 C31.7450951,8.780505300000002 32.7087133,9.744028799999999 33.9299162,10.0101513 L33.9299162,12.135440200000001 C33.9299162,12.5129199 35.2971384,12.5129199 35.2971384,12.135440200000001 L35.2971384,9.399840000000001 C35.2971384,9.022360299999999 34.9910174,8.716247599999999 34.6135273,8.716247599999999 C33.5985699,8.716247599999999 32.7729728,7.890536300000001 32.7729728,6.875674999999999 C32.7729728,6.498195300000001 32.4668517,6.192082600000001 32.0893616,6.192082600000001 L25.726582899999997,6.192082600000001 C25.3490928,6.192082600000001 25.042971799999997,6.498195300000001 25.042971799999997,6.875674999999999 C25.042971799999997,7.890604700000001 24.217306299999997,8.716247599999999 23.2024172,8.716247599999999 C22.824927199999998,8.716247599999999 22.5188061,9.022360299999999 22.5188061,9.399840000000001 L22.5188061,23.0080459 L21.1835769,23.0080459 L21.1835769,3.8679368000000007 L36.6327778,3.8671848000000004 L36.6327778,36.1327468 zM28.908109000000003,21.9043176 C27.858013999999997,21.9043176 27.0037735,21.0500321 27.0037735,20.0000342 C27.0037735,18.9500362 27.8580823,18.0956824 28.908109000000003,18.0956824 C29.9581357,18.0956824 30.812444499999998,18.9499679 30.812444499999998,19.999965800000002 C30.812444499999998,21.0499638 29.958204000000002,21.9043176 28.908109000000003,21.9043176 z" id="Shape"/>
                </g>
            </g>
        </g>
    </g></g></svg>