<svg xmlns="http://www.w3.org/2000/svg" xmlns:xlink="http://www.w3.org/1999/xlink" width="40" height="40" version="1.1" style=""><rect id="backgroundrect" width="100%" height="100%" x="0" y="0" fill="none" stroke="none"/>
    <!-- Generator: Sketch 50 (54983) - http://www.bohemiancoding.com/sketch -->
    <title>Group 16</title>
    <desc>Created with Sketch.</desc>
    <defs/>
    
<g class="currentLayer" style=""><title>Layer 1</title><g id="As-a-Brand:-Rewards" stroke="none" stroke-width="1" fill="none" fill-rule="evenodd" class="">
        <g id="Rewards---Create-Reward---3" fill="#FF5E5E" fill-rule="nonzero">
            <g id="Group-14">
                <g id="In-Kind">
                    <g id="Group-19">
                        <g id="Group-16">
                            <path d="M32.128874736773696,21.437877200000003 L31.10942013677368,21.437877200000003 L31.10942013677368,19.921592099999998 C31.10942013677368,19.438925900000015 30.73569433677369,19.047618999999997 30.274713836773685,19.047618999999997 L23.47875783677364,19.047618999999997 C23.017666036773676,19.047618999999997 22.644051536773645,19.438925900000015 22.644051536773645,19.921592099999998 L22.644051536773645,21.437877200000003 L21.62448563677367,21.437877200000003 C21.163505136773665,21.437877200000003 20.789779336773677,21.829183999999998 20.789779336773677,22.31185019999998 L20.789779336773677,36.01085390000003 C20.789779336773677,37.685386300000005 22.09091953677364,39.047619 23.690216736773664,39.047619 L30.06336623677373,39.047619 C31.66255223677365,39.047619 32.96369233677365,37.685386300000005 32.96369233677365,36.01085390000003 L32.96369233677365,22.31185019999998 C32.96358103677369,21.829183999999998 32.5898552367737,21.437877200000003 32.128874736773696,21.437877200000003 zM24.313464136773632,20.79568169999999 L29.44000753677369,20.79568169999999 L29.44000753677369,21.437993699999993 L24.313464136773632,21.437993699999993 L24.313464136773632,20.79568169999999 zM31.294168436773703,36.01085390000003 C31.294168436773703,36.7215688 30.742038136773658,37.29967290000002 30.06325493677366,37.29967290000002 L23.690105436773706,37.29967290000002 C23.011322336773674,37.29967290000002 22.459080636773706,36.7215688 22.459080636773706,36.01085390000003 L22.459080636773706,23.18582329999998 L31.29405723677371,23.18582329999998 L31.29405723677371,36.01085390000003 L31.294168436773703,36.01085390000003 z" id="Shape"/>
                            <path d="M17.843160536773667,23.808957399999997 L16.823705836773684,23.808957399999997 L16.823705836773684,11.124828700000023 C16.823705836773684,10.649090600000022 16.449980046773703,10.263400499999989 15.98899958677373,10.263400499999989 L15.880153876773647,10.263400499999989 L15.880153876773647,4.008168130000001 C15.880153876773647,3.971643570000026 15.877705406773657,3.102864479999994 15.659012356773701,2.2212214099999983 C15.179668356773732,0.28863588600000867 14.091100056773712,0 13.484769406773694,0 C12.722293036773635,0 11.900830746773636,0.7080940050000208 10.737584056773699,2.3677790599999753 C10.01784464677371,3.394716370000026 9.441229536773676,4.404884540000012 9.416967406773665,4.447381670000027 C9.341621256773692,4.579697039999985 9.302000526773668,4.730274699999995 9.302000526773668,4.883723780000025 L9.302000526773668,10.263285600000017 L9.193266126773665,10.263285600000017 C8.732174366773734,10.263285600000017 8.358559826773671,10.648975800000017 8.358559826773671,11.124713900000017 L8.358559826773671,23.80884259999999 L7.338771329773635,23.80884259999999 C6.877790867773683,23.80884259999999 6.504065036773682,24.194532700000025 6.504065036773682,24.670270800000026 L6.504065036773682,36.137258799999984 C6.504065036773682,37.787755300000015 7.8050939067736635,39.13043479999999 9.404502466773693,39.13043479999999 L15.777540656773681,39.13043479999999 C17.376837936773654,39.13043479999999 18.677978036773652,37.787755300000015 18.677978036773652,36.137258799999984 L18.677978036773652,24.670270800000026 C18.677866736773694,24.194647599999996 18.304140936773706,23.808957399999997 17.843160536773667,23.808957399999997 zM10.971301816773689,5.120444259999999 C11.923200876773649,3.486487189999991 13.073871326773656,1.960840370000028 13.532180726773731,1.7283696000000077 C13.938181866773675,1.8239307100000133 14.208070236773665,3.1328421900000194 14.210852586773626,4.008168130000001 L14.210852586773626,10.263400499999989 L10.971301816773689,10.263400499999989 L10.971301816773689,5.120444259999999 zM10.02774982677363,11.986257000000023 L15.154293286773736,11.986257000000023 L15.154293286773736,23.808957399999997 L10.02774982677363,23.808957399999997 L10.02774982677363,11.986257000000023 zM17.008454236773673,36.13748850000002 C17.008454236773673,36.83800200000002 16.45621251677369,37.40780799999999 15.777429356773723,37.40780799999999 L9.404391166773735,37.40780799999999 C8.725608006773655,37.40780799999999 8.173366326773703,36.83800200000002 8.173366326773703,36.13748850000002 L8.173366326773703,25.53192869999998 L17.008342936773715,25.53192869999998 L17.008342936773715,36.13748850000002 L17.008454236773673,36.13748850000002 z" id="Shape" transform=""/>
                        </g>
                    </g>
                </g>
            </g>
        </g>
    </g></g></svg>