<svg xmlns="http://www.w3.org/2000/svg" xmlns:xlink="http://www.w3.org/1999/xlink" width="40" height="40" version="1.1"><rect id="backgroundrect" width="100%" height="100%" x="0" y="0" fill="none" stroke="none" class="" style=""/>
    <!-- Generator: Sketch 50 (54983) - http://www.bohemiancoding.com/sketch -->
    <title>Group 17</title>
    <desc>Created with Sketch.</desc>
    <defs/>
    
<g class="currentLayer" style=""><title>Layer 1</title><g id="As-a-Brand:-Rewards" stroke="none" stroke-width="1" fill="none" fill-rule="evenodd" class="selected">
        <g id="Rewards---Create-Reward---3" fill-rule="nonzero">
            <g id="Group-14">
                <g id="Voucher">
                    <g id="Group-18">
                        <g id="discount">
                            <g id="Group-17">
                                <path d="M36.19324019999999,17.51804117 L37,17.38151264 L37,10 L4,10 L4,17.38151264 L4.806759765999999,17.51810618 C6.206617190000003,17.75508071 7.22265625,18.9680392 7.22265625,20.4021739 C7.22265625,21.836308600000002 6.206617190000003,23.0492671 4.806759765999999,23.286306699999997 L4,23.4228352 L4,30.804347800000002 L37,30.804347800000002 L37,23.4228352 L36.19324019999999,23.286241599999997 C34.79338279999999,23.0492671 33.77734369999999,21.836308600000002 33.77734369999999,20.4021739 C33.77734369999999,18.9680392 34.79338279999999,17.75508071 36.19324019999999,17.51804117 zM35.06640619999999,25.000909999999998 L35.06640619999999,28.853940199999997 L27.9765625,28.853940199999997 L27.9765625,27.2611073 L26.04296869999999,27.2611073 L26.04296869999999,28.853940199999997 L5.93359375,28.853940199999997 L5.93359375,25.000909999999998 C7.8419863299999975,24.3266541 9.15625,22.5073139 9.15625,20.4021739 C9.15625,18.29703397 7.8419863299999975,16.47769375 5.93359375,15.80343784 L5.93359375,11.95040761 L26.04296869999999,11.95040761 L26.04296869999999,13.543240489999999 L27.9765625,13.543240489999999 L27.9765625,11.95040761 L35.06640619999999,11.95040761 L35.06640619999999,15.80343784 C33.1580137,16.47769375 31.84375,18.29696895 31.84375,20.4021739 C31.84375,22.5073789 33.1580137,24.3266541 35.06640619999999,25.000909999999998 z" id="Shape" fill="#FFAD00"/>
                                <rect id="Rectangle-path" fill="#F5A623" x="26.2391300201416" y="21.47826099395752" width="1.43478262424469" height="4.304347991943359"/>
                                <rect id="Rectangle-path" fill="#F5A623" x="26.2391300201416" y="15.73913049697876" width="1.43478262424469" height="4.304347991943359" transform=""/>
                            </g>
                        </g>
                    </g>
                </g>
            </g>
        </g>
    </g></g></svg>